<svg version="1.1" id="Layer_1" xmlns="http://www.w3.org/2000/svg" x="0" y="0" viewBox="0 0 599 150" xml:space="preserve"><path d="M597 100.4c-1.1 0-2-.9-2-2.1 0-1.1.9-2 2-2s2 .9 2 2c0 1.2-.9 2.1-2 2.1zm-19.4-25.6h-5.4v23.1h5.4c7.8 0 11.8-4.4 11.8-11.5 0-7.2-4-11.6-11.8-11.6zm0 25.4h-8.2V72.5h8.2c9.2 0 14.6 5.2 14.6 13.9 0 8.6-5.4 13.8-14.6 13.8zm-19.5-25.4v25.4h-2.8V74.8h-7.7v-2.3h18.2v2.3h-7.7zm-24.3 25.4V72.5h2.8v25.4h9.9v2.3h-12.7zm-377.6-.1l1.6-3.9h18.6L162 55.6l-16 44.5h-5.7L159 49h6l18.6 51.2h-27.4zm177.3-.1l-28.3-43.5V100h-5.1V48.3h5.1l28.3 43.4V48.3h5.1V100h-5.1zm-66.7-47.7c-11.4 0-20.1 8.3-20.1 21.8S255.4 96 266.8 96c11.4 0 20.1-8.4 20.1-21.9 0-13.5-8.7-21.8-20.1-21.8zm0 48.2c-14.4 0-25.3-10.9-25.3-26.4 0-15.5 11-26.4 25.3-26.4 14.4 0 25.3 10.9 25.3 26.4.1 15.5-10.8 26.4-25.3 26.4zm-40-.5V48.3h5.1V100h-5.1zm-21.6-47.4V100h-5.1V52.6h-14.3v-4.3h33.6v4.3h-14.2zm-95-.4c-11.2 0-19.8 8.4-19.8 21.9 0 13.5 8.6 21.8 19.8 21.8 8.7 0 14.7-4.3 17.6-11h6c-3.7 9.8-12.2 15.5-23.6 15.5-14.2 0-25-10.8-25-26.3s10.8-26.4 25-26.4c11.4 0 19.9 5.8 23.6 15.7h-6c-2.9-6.9-8.9-11.2-17.6-11.2zm-56.7.1c-11.4 0-20.1 8.3-20.1 21.8S42.1 96 53.5 96c11.4 0 20.1-8.4 20.1-21.9 0-13.5-8.7-21.8-20.1-21.8zm0 48.2c-14.4 0-25.3-10.9-25.3-26.4 0-15.5 11-26.4 25.3-26.4 14.4 0 25.3 10.9 25.3 26.4.1 15.5-10.9 26.4-25.3 26.4zM.4 100V48.3h5.1v47.5h18.4v4.2H.4z" fill="#080001"/><linearGradient id="SVGID_1_" gradientUnits="userSpaceOnUse" x1="436.76" y1="149.373" x2="436.76" y2="1"><stop offset="0" stop-color="#a22276"/><stop offset="1" stop-color="#ea2d5e"/></linearGradient><ellipse cx="436.8" cy="75.2" rx="74.2" ry="74.2" fill-rule="evenodd" clip-rule="evenodd" fill="url(#SVGID_1_)"/><path d="M468.2 101.4V80h-19.7v21.4h-12.7V49.3h12.7v20.4h19.7V49.3h12.7v52.1h-12.7zm-56.4-21.7h-9.2v11.5h9.3c4.2 0 6.7-1.9 6.7-5.6 0-3.8-2.6-5.9-6.8-5.9zm-.9-20.2h-8.3v10.9h8.3c4.2 0 6.5-1.9 6.5-5.4-.1-3.6-2.4-5.5-6.5-5.5zm10.5 15.2c6.1 1.3 10 6.6 10 12.5 0 8.6-6.3 14.2-17.3 14.2h-24.2V49.3h23.4c10.6 0 16.9 5.3 16.9 13.5 0 6.3-3.7 10.4-8.8 11.9z" fill="#fff"/></svg>