<svg version="1.1" id="Layer_1" xmlns="http://www.w3.org/2000/svg" x="0" y="0" viewBox="0 0 48 48" xml:space="preserve"><path d="M23.6 1C14 1 6.2 8.8 6.2 18.4c0 2.9.7 5.8 2.2 8.4 0 0 0 .1.1.1L21.9 47c.4.6 1 .9 1.8.9.7 0 1.4-.4 1.8-.9l13.4-20.1v-.1c1.4-2.5 2.2-5.5 2.2-8.4C41 8.8 33.2 1 23.6 1zm-9.5 19.8c-.2-2.5.7-5 2.4-6.9 1.7-1.9 4-3 6.5-3.2 2.5-.2 5 .7 6.9 2.4 1.9 1.7 3 4 3.2 6.5.2 2.5-.7 5-2.4 6.9-1.7 1.9-4 3-6.5 3.2h-.6c-2.3 0-4.5-.8-6.3-2.4-1.9-1.6-3-3.9-3.2-6.5zM25.8 5.3c3.7.2 7.1 2.1 9.1 5.2.2.3.1.7-.2.8-.1.1-.2.1-.3.1-.2 0-.4-.1-.5-.3-1.8-2.8-4.8-4.5-8.1-4.6-.3 0-.6-.3-.6-.6 0-.4.3-.6.6-.6zm10.3 12.4c-.4 0-.6-.3-.6-.6 0-1.1-.1-2.2-.4-3.2-.1-.3.1-.7.4-.7.3-.1.7.1.7.4.3 1.2.5 2.4.4 3.6.1.3-.2.5-.5.5z" fill="#b5226f" id="Icons"/></svg>